HIERARCHY
ROOT Hips
{
	OFFSET 0.00000 0.00000 0.00000
	CHANNELS 6 Xposition Yposition Zposition Zrotation Yrotation Xrotation 
	JOINT LHipJoint
	{
		OFFSET 0 0 0
		CHANNELS 3 Zrotation Yrotation Xrotation
		JOINT LeftHip
		{
			OFFSET 1.48211 -1.84579 0.74791
			CHANNELS 3 Zrotation Yrotation Xrotation
			JOINT LeftKnee
			{
				OFFSET 2.56990 -7.06075 0.00000
				CHANNELS 3 Zrotation Yrotation Xrotation
				JOINT LeftAnkle
				{
					OFFSET 2.57933 -7.08667 0.00000
					CHANNELS 3 Zrotation Yrotation Xrotation
					JOINT LeftToe
					{
						OFFSET 0.22969 -0.63106 2.10885
						CHANNELS 3 Zrotation Yrotation Xrotation
						End Site
						{
							OFFSET 0.00000 -0.00000 1.10362
						}
					}
				}
			}
		}
	}
	JOINT RHipJoint
	{
		OFFSET 0 0 0
		CHANNELS 3 Zrotation Yrotation Xrotation
		JOINT RightHip
		{
			OFFSET -1.46257 -1.84580 0.74791
			CHANNELS 3 Zrotation Yrotation Xrotation
			JOINT RightKnee
			{
				OFFSET -2.63352 -7.23555 0.00000
				CHANNELS 3 Zrotation Yrotation Xrotation
				JOINT RightAnkle
				{
					OFFSET -2.53360 -6.96100 0.00000
					CHANNELS 3 Zrotation Yrotation Xrotation
					JOINT RightToe
					{
						OFFSET -0.19079 -0.52420 2.00624
						CHANNELS 3 Zrotation Yrotation Xrotation
						End Site
						{
							OFFSET -0.00000 -0.00000 1.04369
						}
					}
				}
			}
		}
	}
	JOINT lowerback
	{
		OFFSET 0 0 0
		CHANNELS 3 Zrotation Yrotation Xrotation
		JOINT Chest
		{
			OFFSET -0.02583 2.09021 -0.27313
			CHANNELS 3 Zrotation Yrotation Xrotation
			JOINT Chest2
			{
				OFFSET 0.02621 2.11682 -0.03538
				CHANNELS 3 Zrotation Yrotation Xrotation
				JOINT lowerneck
				{
					OFFSET 0 0 0
					CHANNELS 3 Zrotation Yrotation Xrotation
					JOINT Neck
					{
						OFFSET 0.02848 1.69944 0.27193
						CHANNELS 3 Zrotation Yrotation Xrotation
						JOINT Head
						{
							OFFSET -0.09826 1.73070 -0.26626
							CHANNELS 3 Zrotation Yrotation Xrotation
							End Site
							{
								OFFSET -0.03061 1.75878 -0.12207
							}
						}
					}
				}
				JOINT LeftCollar
				{
					OFFSET 0 0 0
					CHANNELS 3 Zrotation Yrotation Xrotation
					JOINT LeftShoulder
					{
						OFFSET 3.42696 0.97228 -0.33778
CHANNELS 3 Zrotation Xrotation Yrotation
						JOINT LeftElbow
						{
OFFSET 0 -5.255250 0.000000
CHANNELS 3 Zrotation Xrotation Yrotation
							JOINT LeftWrist
							{
OFFSET 0 -3.351060 0.000000
CHANNELS 3 Zrotation Xrotation Yrotation
								JOINT lhand
								{
									OFFSET 0 0 0
CHANNELS 3 Zrotation Xrotation Yrotation
									JOINT LFingers
									{
OFFSET 0 -0.574150 0.000000
CHANNELS 3 Zrotation Xrotation Yrotation
										End Site
										{
OFFSET 0 -0.462900 0.000000
										}
									}
								}
								JOINT LThumb
								{
OFFSET 0 0.000000 0.000000
CHANNELS 3 Zrotation Xrotation Yrotation
									End Site
									{
OFFSET 0 -0.469960 0.469960
									}
								}
							}
						}
					}
				}
				JOINT RightCollar
				{
					OFFSET 0 0 0
					CHANNELS 3 Zrotation Yrotation Xrotation
					JOINT RightShoulder
					{
						OFFSET -3.28720 1.02454 -0.32654
CHANNELS 3 Zrotation Xrotation Yrotation
						JOINT RightElbow
						{
OFFSET 0 -5.331040 0.000000
CHANNELS 3 Zrotation Xrotation Yrotation
							JOINT RightWrist
							{
OFFSET 0 -3.398830 0.000000
CHANNELS 3 Zrotation Xrotation Yrotation
								JOINT rhand
								{
									OFFSET 0 0 0
CHANNELS 3 Zrotation Xrotation Yrotation
									JOINT RFingers
									{
OFFSET 0 -0.913890 0.000000
CHANNELS 3 Zrotation Xrotation Yrotation
										End Site
										{
OFFSET 0 -0.736800 0.000000
										}
									}
								}
								JOINT RThumb
								{
OFFSET 0 0.000000 0.000000
CHANNELS 3 Zrotation Xrotation Yrotation
									End Site
									{
OFFSET 0 -0.748050 0.748050
									}
								}
							}
						}
					}
				}
			}
		}
	}
}
MOTION
Frames: 10
Frame Time: 0.008333333333333333
-8.323700 17.347900 28.779000 161.866000 -78.894300 -174.599000 0.000000 0.000000 0.000000 -15.425300 -4.307500 4.388400 5.631100 14.061100 43.482600 0.097900 -9.716100 -8.379700 2.292400 -9.450200 -27.214000 0.000000 0.000000 0.000000 8.361400 -10.692000 -1.067600 -5.795300 -14.227000 44.154500 -0.711600 0.147200 -15.894000 -2.378500 9.613600 -27.734300 -1.311500 -2.082600 15.418000 0.401600 -3.000700 -2.661000 1.932600 -1.312300 -11.518900 1.112300 -5.322000 -26.286500 -4.110900 -6.900100 9.080500 -2.422900 -3.715800 6.739500 -0.000000 0.000000 0.000000 153.763400 -32.229900 95.070800 19.499000 -30.034100 5.278300 51.887800 6.323000 -34.576700 0.000000 0.000000 0.000000 -7.125000 0.000000 0.000000 39.639700 75.191400 -29.179300 -0.000000 0.000000 0.000000 -164.319000 -46.865000 -81.662700 -34.023600 -44.102200 -14.129500 -25.906600 -41.944500 6.755800 0.000000 0.000000 0.000000 7.125000 0.000000 -0.000000 0.732900 37.481200 0.135600
-8.408649 17.392154 28.629798 155.208957 -81.487546 -168.241028 0.000000 0.000000 0.000000 -16.019073 -3.199881 2.819706 5.907607 14.338193 44.609714 -0.288571 -14.180064 -6.092358 2.517868 -9.814167 -28.422386 0.000000 0.000000 0.000000 7.703302 -12.936882 -0.933596 -6.082150 -14.506911 45.309536 -0.640731 1.078032 -14.790267 -1.839014 8.521490 -24.310027 -2.362956 -2.443525 15.940256 0.364831 -3.706013 -2.522118 2.683063 -1.574954 -11.578141 0.238090 -5.562177 -25.278278 -4.134232 -6.934253 8.961822 -2.264403 -3.760510 6.578138 0.000000 0.000000 0.000000 153.740153 -31.772924 93.488116 21.651385 -32.575067 6.399669 50.594057 3.217675 -35.224603 0.000000 0.000000 0.000000 -7.125000 0.000000 0.000000 36.603784 75.557178 -27.081831 0.000000 0.000000 0.000000 -160.258006 -45.584854 -84.018581 -36.551973 -45.889021 -15.917600 -26.605138 -48.568564 3.131425 0.000000 0.000000 0.000000 7.125000 0.000000 0.000000 0.002230 33.481068 0.000557
-8.515034 17.419795 28.524861 140.782920 -83.377113 -154.076689 0.000000 0.000000 0.000000 -17.810981 -2.476742 2.141119 5.840534 14.271806 44.337928 -0.783648 -16.907479 -1.111556 0.163826 -2.387255 -6.586274 0.000000 0.000000 0.000000 6.169152 -14.721775 -2.063406 -6.876268 -15.223695 48.399327 -0.443247 1.369348 -12.134103 -1.544234 7.826367 -22.196907 -3.568676 -2.594481 16.243024 -0.192684 -4.222258 -2.279434 2.888539 -1.769550 -11.412249 0.747860 -6.195995 -24.413135 -4.803577 -7.801729 10.019241 -2.661792 -4.205793 6.723048 0.000000 0.000000 0.000000 154.382728 -30.897444 88.946179 24.628286 -35.818779 8.072533 48.359465 -1.755901 -32.973701 0.000000 0.000000 0.000000 -7.125000 0.000000 0.000000 29.036552 72.499974 -19.494618 0.000000 0.000000 0.000000 -159.235280 -42.224547 -88.839550 -36.685033 -45.978474 -16.013164 -26.333322 -57.568032 3.442038 0.000000 0.000000 0.000000 7.125000 0.000000 0.000000 0.232535 33.819077 0.063732
-8.606362 17.395934 28.453268 144.856778 -84.550423 -157.514755 0.000000 0.000000 0.000000 -17.443614 -1.074762 1.908541 5.557104 13.984246 43.175742 -0.380326 -13.760190 -3.981406 0.567853 -4.772811 -13.271848 0.000000 0.000000 0.000000 6.340089 -15.067971 -5.401079 -8.124737 -16.205529 53.003232 -0.121390 2.716532 -6.037857 -1.696432 8.199762 -23.324321 -3.203849 -2.908914 16.433347 0.324213 -4.519721 -2.496170 3.347091 -1.897143 -11.730012 0.561529 -6.591884 -23.254318 -4.929830 -8.226195 11.144770 -2.714932 -4.414524 6.902177 0.000000 0.000000 0.000000 155.113491 -28.963754 82.322764 26.236759 -37.440565 9.031547 46.904440 -3.000788 -31.302637 0.000000 0.000000 0.000000 -7.125000 0.000000 0.000000 24.877102 70.209037 -15.298283 0.000000 0.000000 0.000000 -160.911556 -38.951757 -94.059556 -36.415975 -45.797099 -15.819962 -26.859670 -63.527821 3.129140 0.000000 0.000000 0.000000 7.125000 0.000000 0.000000 -0.206524 33.487254 -0.056239
-8.710235 17.335651 28.392261 139.741416 -84.895265 -152.420865 0.000000 0.000000 0.000000 -17.900607 -1.427957 4.140384 5.030303 13.415858 40.949291 -0.276331 -14.664558 -6.760679 0.960896 -6.241405 -17.486530 0.000000 0.000000 0.000000 4.703872 -14.279843 -8.105105 -9.501852 -17.116352 57.804769 0.068042 4.778141 0.630336 -0.797152 5.641508 -15.762972 -4.040807 -2.954810 17.265582 0.459686 -4.776146 -2.421989 4.088780 -1.941663 -12.037314 0.593292 -6.992654 -22.837588 -4.879051 -8.760090 12.176483 -2.783760 -4.655359 7.159244 0.000000 0.000000 0.000000 156.715278 -26.173454 76.323842 27.273661 -38.437826 9.669127 46.942895 -3.908770 -31.415831 0.000000 0.000000 0.000000 -7.125000 0.000000 0.000000 25.010011 70.347725 -15.464360 0.000000 0.000000 0.000000 -161.955466 -35.149901 -96.292837 -36.659663 -45.961487 -15.994930 -27.127177 -63.714543 4.794832 0.000000 0.000000 0.000000 7.125000 0.000000 0.000000 -0.377722 35.360106 -0.097569
-8.818662 17.186712 28.303071 125.555895 -84.791876 -138.409496 0.000000 0.000000 0.000000 -18.845767 -2.151821 6.683863 4.467579 12.756783 38.466521 -0.264896 -16.599125 -8.790144 0.467959 -4.351906 -12.074492 0.000000 0.000000 0.000000 2.053851 -13.977015 -10.068620 -10.503738 -17.682998 61.158380 0.173729 7.838445 0.229472 -0.865540 5.924424 -16.567675 -4.984878 -2.454907 17.970806 -0.354174 -4.449962 -2.158900 3.673114 -1.757851 -12.180756 2.045075 -7.735099 -22.870373 -5.611312 -10.062658 12.884529 -3.412731 -5.278623 7.232361 0.000000 0.000000 0.000000 160.489424 -24.418388 75.226345 27.714011 -38.851562 9.943740 49.053850 -1.749992 -32.585226 0.000000 0.000000 0.000000 -7.125000 0.000000 0.000000 30.258386 72.289716 -20.148127 0.000000 0.000000 0.000000 -160.552660 -30.260322 -94.391780 -35.578550 -45.205803 -15.227586 -23.678894 -55.492814 11.335595 0.000000 0.000000 0.000000 7.125000 0.000000 0.000000 3.196546 42.259134 0.088050
-8.940157 17.042837 28.167946 104.521681 -85.005899 -117.373387 0.000000 0.000000 0.000000 -19.208959 -2.582331 8.162227 4.114493 12.310930 36.841525 -0.194509 -17.773512 -10.584399 0.211763 -2.953000 -8.148597 0.000000 0.000000 0.000000 0.440599 -13.217511 -10.451834 -10.391468 -17.623878 60.788453 -0.127753 4.446745 -6.620071 -0.505951 4.559539 -12.656383 -6.088724 -3.323689 18.994530 0.253051 -5.872469 -2.658275 5.460358 -2.251434 -13.048891 -0.137322 -7.720297 -21.339768 -5.884847 -9.398749 12.329850 -3.009558 -5.095183 6.934200 0.000000 0.000000 0.000000 159.512990 -23.072412 73.529081 27.098991 -38.273173 9.560449 50.118337 1.001819 -33.803999 0.000000 0.000000 0.000000 -7.125000 0.000000 0.000000 33.842161 73.921318 -23.812836 0.000000 0.000000 0.000000 -163.213499 -28.357536 -93.065600 -34.913770 -44.748975 -14.753117 -32.803032 -56.384964 12.655908 0.000000 0.000000 0.000000 7.125000 0.000000 0.000000 -5.151610 44.875687 -0.014532
-9.078441 16.913405 27.975089 92.643081 -84.913037 -105.202783 0.000000 0.000000 0.000000 -19.048620 -2.572885 9.076161 3.891672 12.014877 35.784749 0.086463 -17.998418 -13.439099 0.153516 -2.524492 -6.957736 0.000000 0.000000 0.000000 0.381407 -10.321410 -9.358437 -9.671078 -17.220630 58.383096 -0.418036 5.137046 -11.535714 -1.291211 7.198874 -20.306358 -6.186512 -3.544247 18.832197 -0.048588 -6.221998 -2.738597 5.261672 -2.421560 -13.030462 -0.061026 -8.430126 -21.202926 -6.044148 -10.359752 12.016858 -3.154801 -5.566811 6.759920 0.000000 0.000000 0.000000 159.820772 -21.911620 73.337949 26.452217 -37.651739 9.162462 49.294716 2.188628 -33.078645 0.000000 0.000000 0.000000 -7.125000 0.000000 0.000000 31.161259 72.903168 -21.173010 0.000000 0.000000 0.000000 -162.860154 -27.248779 -92.963296 -34.985802 -44.801951 -14.803352 -34.032294 -56.448355 11.944691 0.000000 0.000000 0.000000 7.125000 0.000000 0.000000 -6.318778 44.208141 -0.124098
-9.234376 16.855722 27.739195 80.730814 -85.024366 -93.152296 0.000000 0.000000 0.000000 -18.682082 -3.816081 10.664603 3.653421 11.684016 34.623571 0.348365 -17.356458 -15.300214 0.125282 -2.281100 -6.283093 0.000000 0.000000 0.000000 1.596735 -7.851567 -6.561799 -9.097280 -16.869149 56.424774 -0.425556 6.028300 -11.721011 -2.469368 9.781138 -28.271557 -5.462730 -3.400559 18.985859 -0.722736 -5.987839 -3.211772 4.079330 -2.350927 -13.859705 0.359723 -9.972929 -20.785555 -6.075163 -12.544944 12.030470 -3.424498 -6.596675 6.581025 0.000000 0.000000 0.000000 160.496090 -21.692528 71.978565 26.262366 -37.466685 9.046792 49.676004 4.304892 -33.323356 0.000000 0.000000 0.000000 -7.125000 0.000000 0.000000 32.298806 73.278172 -22.242800 0.000000 0.000000 0.000000 -161.200910 -27.295861 -91.436070 -35.683390 -45.293922 -15.297025 -35.545510 -55.858059 10.454262 0.000000 0.000000 0.000000 7.125000 0.000000 0.000000 -7.702589 42.626598 -0.455555
-9.411619 16.969929 27.464630 60.610492 -85.025981 -72.295532 0.000000 0.000000 0.000000 -17.636583 -5.465222 11.403823 3.376771 11.280781 33.233445 0.310877 -15.468230 -13.935273 0.217199 -2.944138 -8.127395 0.000000 0.000000 0.000000 3.783038 -8.835540 -4.074874 -7.940046 -16.068543 52.335826 -0.574469 5.028549 -13.540782 -2.388480 9.623173 -27.772207 -4.832089 -3.842284 18.869239 -0.983374 -6.525771 -4.296940 3.640227 -2.584559 -15.131878 -0.148479 -11.446611 -19.976791 -5.606235 -14.466676 11.598467 -3.322768 -7.496894 6.302424 0.000000 0.000000 0.000000 160.578840 -21.571860 69.062617 26.026002 -37.234066 8.903467 48.871324 3.804395 -33.530347 0.000000 0.000000 0.000000 -7.125000 0.000000 0.000000 30.493241 73.271117 -20.950819 0.000000 0.000000 0.000000 -160.477910 -28.211465 -89.945850 -35.310336 -45.032451 -15.032522 -37.310740 -55.021723 9.258934 0.000000 0.000000 0.000000 7.125000 0.000000 0.000000 -9.259733 41.386759 -0.827256
